<svg width="20" height="20" viewBox="0 0 20 20" fill="none" xmlns="http://www.w3.org/2000/svg">
<path d="M9.16667 10.8333H5C4.76389 10.8333 4.56597 10.7535 4.40625 10.5937C4.24653 10.434 4.16667 10.2361 4.16667 10C4.16667 9.76389 4.24653 9.56597 4.40625 9.40625C4.56597 9.24653 4.76389 9.16667 5 9.16667H9.16667V5C9.16667 4.76389 9.24653 4.56597 9.40625 4.40625C9.56597 4.24653 9.76389 4.16667 10 4.16667C10.2361 4.16667 10.434 4.24653 10.5937 4.40625C10.7535 4.56597 10.8333 4.76389 10.8333 5V9.16667H15C15.2361 9.16667 15.434 9.24653 15.5938 9.40625C15.7535 9.56597 15.8333 9.76389 15.8333 10C15.8333 10.2361 15.7535 10.434 15.5938 10.5937C15.434 10.7535 15.2361 10.8333 15 10.8333H10.8333V15C10.8333 15.2361 10.7535 15.434 10.5937 15.5938C10.434 15.7535 10.2361 15.8333 10 15.8333C9.76389 15.8333 9.56597 15.7535 9.40625 15.5938C9.24653 15.434 9.16667 15.2361 9.16667 15V10.8333Z" fill="white"/>
</svg>
